<svg xmlns="http://www.w3.org/2000/svg" viewBox="0 0 96 96"><line x1="70" y1="10" x2="46" y2="56" stroke="#8B735E" stroke-width="6" stroke-linecap="round"/><g transform="rotate(28 40 70)"><path d="M26 58 H54 L58 86 H22 Z" fill="#C99236"/><line x1="30" y1="66" x2="29" y2="84" stroke="#F0C36D" stroke-width="3" stroke-linecap="round"/><line x1="38" y1="66" x2="37" y2="84" stroke="#F0C36D" stroke-width="3" stroke-linecap="round"/><line x1="46" y1="66" x2="45" y2="84" stroke="#F0C36D" stroke-width="3" stroke-linecap="round"/></g><polygon points="80.0,33.0 81.8,37.6 86.7,37.8 82.9,40.9 84.1,45.7 80.0,43.0 75.9,45.7 77.1,40.9 73.3,37.8 78.2,37.6" fill="#F0C36D"/><polygon points="16.0,29.0 17.3,32.2 20.8,32.5 18.1,34.7 18.9,38.0 16.0,36.2 13.1,38.0 13.9,34.7 11.2,32.5 14.7,32.2" fill="#7D988D"/></svg>