<svg xmlns="http://www.w3.org/2000/svg" viewBox="0 0 96 96"><rect x="14" y="20" width="68" height="62" rx="8" fill="#FFFDF9" stroke="#9DB5A8" stroke-width="3"/><path d="M14 28 Q14 20 22 20 H74 Q82 20 82 28 V38 H14 Z" fill="#C27D68"/><rect x="28" y="12" width="7" height="16" rx="3" fill="#5E4A3E"/><rect x="61" y="12" width="7" height="16" rx="3" fill="#5E4A3E"/><rect x="22" y="46" width="10" height="8" rx="2" fill="#B8D4C4"/><rect x="37" y="46" width="10" height="8" rx="2" fill="#B8D4C4"/><rect x="52" y="46" width="10" height="8" rx="2" fill="#B8D4C4"/><rect x="67" y="46" width="10" height="8" rx="2" fill="#B8D4C4"/><rect x="22" y="58" width="10" height="8" rx="2" fill="#B8D4C4"/><rect x="37" y="58" width="10" height="8" rx="2" fill="#B8D4C4"/><rect x="67" y="58" width="10" height="8" rx="2" fill="#B8D4C4"/><rect x="22" y="70" width="10" height="8" rx="2" fill="#B8D4C4"/><rect x="37" y="70" width="10" height="8" rx="2" fill="#B8D4C4"/><rect x="52" y="70" width="10" height="8" rx="2" fill="#B8D4C4"/><rect x="67" y="70" width="10" height="8" rx="2" fill="#B8D4C4"/><rect x="52" y="58" width="10" height="8" rx="2" fill="#F0C36D"/></svg>